<mxfile host="app.diagrams.net" modified="2023-12-06T17:28:32.904Z" agent="Mozilla/5.0 (Windows NT 10.0; Win64; x64) AppleWebKit/537.36 (KHTML, like Gecko) Chrome/119.0.0.0 Safari/537.36" etag="zS9l4KIVtM8XmksETh_n" version="22.1.7" type="github" pages="2">
  <diagram id="prtHgNgQTEPvFCAcTncT" name="Page-1">
    <mxGraphModel dx="2074" dy="1140" grid="1" gridSize="10" guides="1" tooltips="1" connect="1" arrows="1" fold="1" page="1" pageScale="1" pageWidth="827" pageHeight="1169" math="0" shadow="0">
      <root>
        <mxCell id="0" />
        <mxCell id="1" parent="0" />
        <mxCell id="EUKcb9HUOtfYFvjzSp2Y-1" value="" style="rounded=0;whiteSpace=wrap;html=1;" vertex="1" parent="1">
          <mxGeometry x="40" y="50" width="760" height="1080" as="geometry" />
        </mxCell>
        <mxCell id="ubt0KvoYpF2nRE3_xYgo-1" value="&lt;p style=&quot;line-height: 200%; font-size: 19px;&quot;&gt;SHOP VP&lt;/p&gt;" style="rounded=0;whiteSpace=wrap;html=1;" vertex="1" parent="1">
          <mxGeometry x="325" y="100" width="170" height="90" as="geometry" />
        </mxCell>
        <mxCell id="ubt0KvoYpF2nRE3_xYgo-2" value="&lt;font style=&quot;font-size: 20px;&quot;&gt;button/Add to cart&lt;/font&gt;" style="rounded=0;whiteSpace=wrap;html=1;" vertex="1" parent="1">
          <mxGeometry x="495" y="490" width="120" height="60" as="geometry" />
        </mxCell>
        <mxCell id="ubt0KvoYpF2nRE3_xYgo-13" style="edgeStyle=orthogonalEdgeStyle;rounded=0;orthogonalLoop=1;jettySize=auto;html=1;" edge="1" parent="1" source="ubt0KvoYpF2nRE3_xYgo-3" target="ubt0KvoYpF2nRE3_xYgo-6">
          <mxGeometry relative="1" as="geometry" />
        </mxCell>
        <mxCell id="ubt0KvoYpF2nRE3_xYgo-14" style="edgeStyle=orthogonalEdgeStyle;rounded=0;orthogonalLoop=1;jettySize=auto;html=1;" edge="1" parent="1" source="ubt0KvoYpF2nRE3_xYgo-3" target="ubt0KvoYpF2nRE3_xYgo-4">
          <mxGeometry relative="1" as="geometry" />
        </mxCell>
        <mxCell id="ubt0KvoYpF2nRE3_xYgo-15" style="edgeStyle=orthogonalEdgeStyle;rounded=0;orthogonalLoop=1;jettySize=auto;html=1;" edge="1" parent="1" source="ubt0KvoYpF2nRE3_xYgo-3" target="ubt0KvoYpF2nRE3_xYgo-5">
          <mxGeometry relative="1" as="geometry" />
        </mxCell>
        <mxCell id="ubt0KvoYpF2nRE3_xYgo-3" value="&lt;font style=&quot;font-size: 20px;&quot;&gt;merch&lt;/font&gt;" style="rounded=0;whiteSpace=wrap;html=1;" vertex="1" parent="1">
          <mxGeometry x="340" y="230" width="120" height="60" as="geometry" />
        </mxCell>
        <mxCell id="ubt0KvoYpF2nRE3_xYgo-4" value="&lt;font style=&quot;font-size: 20px;&quot;&gt;item description&lt;/font&gt;" style="rounded=0;whiteSpace=wrap;html=1;" vertex="1" parent="1">
          <mxGeometry x="340" y="360" width="120" height="60" as="geometry" />
        </mxCell>
        <mxCell id="ubt0KvoYpF2nRE3_xYgo-7" style="edgeStyle=orthogonalEdgeStyle;rounded=0;orthogonalLoop=1;jettySize=auto;html=1;exitX=0.5;exitY=1;exitDx=0;exitDy=0;entryX=0.5;entryY=0;entryDx=0;entryDy=0;" edge="1" parent="1" source="ubt0KvoYpF2nRE3_xYgo-5" target="ubt0KvoYpF2nRE3_xYgo-2">
          <mxGeometry relative="1" as="geometry" />
        </mxCell>
        <mxCell id="ubt0KvoYpF2nRE3_xYgo-17" style="edgeStyle=orthogonalEdgeStyle;rounded=0;orthogonalLoop=1;jettySize=auto;html=1;entryX=0;entryY=0.5;entryDx=0;entryDy=0;" edge="1" parent="1" source="ubt0KvoYpF2nRE3_xYgo-5" target="ubt0KvoYpF2nRE3_xYgo-16">
          <mxGeometry relative="1" as="geometry" />
        </mxCell>
        <mxCell id="ubt0KvoYpF2nRE3_xYgo-5" value="&lt;font style=&quot;font-size: 20px;&quot;&gt;Stock /Qty&lt;/font&gt;" style="rounded=0;whiteSpace=wrap;html=1;" vertex="1" parent="1">
          <mxGeometry x="480" y="360" width="120" height="60" as="geometry" />
        </mxCell>
        <mxCell id="ubt0KvoYpF2nRE3_xYgo-6" value="&lt;font style=&quot;font-size: 20px;&quot;&gt;name of item&lt;/font&gt;" style="rounded=0;whiteSpace=wrap;html=1;" vertex="1" parent="1">
          <mxGeometry x="180" y="360" width="120" height="60" as="geometry" />
        </mxCell>
        <mxCell id="ubt0KvoYpF2nRE3_xYgo-11" style="edgeStyle=orthogonalEdgeStyle;rounded=0;orthogonalLoop=1;jettySize=auto;html=1;" edge="1" parent="1" source="ubt0KvoYpF2nRE3_xYgo-8" target="ubt0KvoYpF2nRE3_xYgo-10">
          <mxGeometry relative="1" as="geometry" />
        </mxCell>
        <mxCell id="ubt0KvoYpF2nRE3_xYgo-12" style="edgeStyle=orthogonalEdgeStyle;rounded=0;orthogonalLoop=1;jettySize=auto;html=1;" edge="1" parent="1" source="ubt0KvoYpF2nRE3_xYgo-8" target="ubt0KvoYpF2nRE3_xYgo-9">
          <mxGeometry relative="1" as="geometry" />
        </mxCell>
        <mxCell id="ubt0KvoYpF2nRE3_xYgo-8" value="CART" style="rounded=0;whiteSpace=wrap;html=1;" vertex="1" parent="1">
          <mxGeometry x="360" y="640" width="120" height="60" as="geometry" />
        </mxCell>
        <mxCell id="ubt0KvoYpF2nRE3_xYgo-9" value="CHECKOUT BUTTON" style="rounded=0;whiteSpace=wrap;html=1;" vertex="1" parent="1">
          <mxGeometry x="470" y="740" width="120" height="60" as="geometry" />
        </mxCell>
        <mxCell id="ubt0KvoYpF2nRE3_xYgo-10" value="REMOVE ITEM" style="rounded=0;whiteSpace=wrap;html=1;" vertex="1" parent="1">
          <mxGeometry x="280" y="740" width="120" height="60" as="geometry" />
        </mxCell>
        <mxCell id="ubt0KvoYpF2nRE3_xYgo-16" value="&lt;font style=&quot;font-size: 20px;&quot;&gt;OOS&lt;/font&gt;" style="rounded=0;whiteSpace=wrap;html=1;" vertex="1" parent="1">
          <mxGeometry x="640" y="360" width="120" height="60" as="geometry" />
        </mxCell>
      </root>
    </mxGraphModel>
  </diagram>
  <diagram id="VO63-il2bwiDvJK8v_sa" name="Page-2">
    <mxGraphModel dx="2074" dy="1140" grid="1" gridSize="10" guides="1" tooltips="1" connect="1" arrows="1" fold="1" page="1" pageScale="1" pageWidth="850" pageHeight="1100" math="0" shadow="0">
      <root>
        <mxCell id="0" />
        <mxCell id="1" parent="0" />
        <mxCell id="-yyvF5GIbgSViEUZUS7O-1" value="" style="rounded=0;whiteSpace=wrap;html=1;" vertex="1" parent="1">
          <mxGeometry x="20" y="30" width="810" height="1050" as="geometry" />
        </mxCell>
        <mxCell id="-yyvF5GIbgSViEUZUS7O-11" style="edgeStyle=orthogonalEdgeStyle;rounded=0;orthogonalLoop=1;jettySize=auto;html=1;" edge="1" parent="1" source="-yyvF5GIbgSViEUZUS7O-2" target="-yyvF5GIbgSViEUZUS7O-3">
          <mxGeometry relative="1" as="geometry" />
        </mxCell>
        <mxCell id="-yyvF5GIbgSViEUZUS7O-2" value="&lt;font style=&quot;font-size: 20px;&quot;&gt;MANAGER&lt;/font&gt;" style="rounded=0;whiteSpace=wrap;html=1;" vertex="1" parent="1">
          <mxGeometry x="200" y="100" width="440" height="150" as="geometry" />
        </mxCell>
        <mxCell id="-yyvF5GIbgSViEUZUS7O-12" style="edgeStyle=orthogonalEdgeStyle;rounded=0;orthogonalLoop=1;jettySize=auto;html=1;entryX=0.5;entryY=0;entryDx=0;entryDy=0;" edge="1" parent="1" source="-yyvF5GIbgSViEUZUS7O-3" target="-yyvF5GIbgSViEUZUS7O-4">
          <mxGeometry relative="1" as="geometry" />
        </mxCell>
        <mxCell id="-yyvF5GIbgSViEUZUS7O-3" value="&lt;font style=&quot;font-size: 20px;&quot;&gt;MERCH CONTROL&lt;/font&gt;" style="rounded=0;whiteSpace=wrap;html=1;" vertex="1" parent="1">
          <mxGeometry x="313" y="300" width="225" height="60" as="geometry" />
        </mxCell>
        <mxCell id="-yyvF5GIbgSViEUZUS7O-8" style="edgeStyle=orthogonalEdgeStyle;rounded=0;orthogonalLoop=1;jettySize=auto;html=1;" edge="1" parent="1" source="-yyvF5GIbgSViEUZUS7O-4" target="-yyvF5GIbgSViEUZUS7O-5">
          <mxGeometry relative="1" as="geometry" />
        </mxCell>
        <mxCell id="-yyvF5GIbgSViEUZUS7O-9" style="edgeStyle=orthogonalEdgeStyle;rounded=0;orthogonalLoop=1;jettySize=auto;html=1;entryX=0.5;entryY=0;entryDx=0;entryDy=0;" edge="1" parent="1" source="-yyvF5GIbgSViEUZUS7O-4" target="-yyvF5GIbgSViEUZUS7O-6">
          <mxGeometry relative="1" as="geometry" />
        </mxCell>
        <mxCell id="-yyvF5GIbgSViEUZUS7O-10" style="edgeStyle=orthogonalEdgeStyle;rounded=0;orthogonalLoop=1;jettySize=auto;html=1;" edge="1" parent="1" source="-yyvF5GIbgSViEUZUS7O-4" target="-yyvF5GIbgSViEUZUS7O-7">
          <mxGeometry relative="1" as="geometry" />
        </mxCell>
        <mxCell id="-yyvF5GIbgSViEUZUS7O-4" value="&lt;font style=&quot;font-size: 20px;&quot;&gt;update store&lt;/font&gt;" style="rounded=0;whiteSpace=wrap;html=1;" vertex="1" parent="1">
          <mxGeometry x="365" y="400" width="120" height="60" as="geometry" />
        </mxCell>
        <mxCell id="-yyvF5GIbgSViEUZUS7O-5" value="&lt;font style=&quot;font-size: 20px;&quot;&gt;create item&lt;/font&gt;" style="rounded=0;whiteSpace=wrap;html=1;" vertex="1" parent="1">
          <mxGeometry x="180" y="500" width="120" height="60" as="geometry" />
        </mxCell>
        <mxCell id="-yyvF5GIbgSViEUZUS7O-6" value="&lt;font style=&quot;font-size: 20px;&quot;&gt;update item&lt;/font&gt;" style="rounded=0;whiteSpace=wrap;html=1;" vertex="1" parent="1">
          <mxGeometry x="360" y="500" width="120" height="60" as="geometry" />
        </mxCell>
        <mxCell id="-yyvF5GIbgSViEUZUS7O-7" value="&lt;font style=&quot;font-size: 20px;&quot;&gt;delete item&lt;/font&gt;" style="rounded=0;whiteSpace=wrap;html=1;" vertex="1" parent="1">
          <mxGeometry x="530" y="500" width="120" height="60" as="geometry" />
        </mxCell>
        <mxCell id="-yyvF5GIbgSViEUZUS7O-13" value="&lt;font style=&quot;font-size: 20px;&quot;&gt;ALTER STOCK&lt;/font&gt;" style="rounded=0;whiteSpace=wrap;html=1;" vertex="1" parent="1">
          <mxGeometry x="365" y="600" width="120" height="60" as="geometry" />
        </mxCell>
      </root>
    </mxGraphModel>
  </diagram>
</mxfile>
